<?xml version="1.0" standalone="no"?>
<!DOCTYPE svg PUBLIC "-//W3C//DTD SVG 20010904//EN"
 "http://www.w3.org/TR/2001/REC-SVG-20010904/DTD/svg10.dtd">
<svg version="1.0" xmlns="http://www.w3.org/2000/svg"
 width="588.000000pt" height="588.000000pt" viewBox="0 0 588.000000 588.000000"
 preserveAspectRatio="xMidYMid meet">
<metadata>
Created by potrace 1.11, written by Peter Selinger 2001-2013
</metadata>
<g transform="translate(0.000000,588.000000) scale(0.100000,-0.100000)"
fill="#000000" stroke="none">
<path d="M291 5844 c-97 -28 -178 -109 -211 -208 -10 -32 -13 -547 -13 -2691
0 -2496 1 -2655 18 -2707 23 -74 89 -148 163 -185 l57 -28 2630 1 c1447 0
2644 4 2660 8 96 23 201 131 220 226 4 19 7 1230 8 2690 l1 2655 -24 55 c-30
70 -90 134 -160 168 l-55 27 -2626 1 c-2061 1 -2635 -2 -2668 -12z"/>
</g>
</svg>
