<svg xmlns="http://www.w3.org/2000/svg" xmlns:xlink="http://www.w3.org/1999/xlink" width="63" height="63" fill="none"><g clip-path="url(#A)"><path d="M61.38 51.687H1.077C.482 51.687 0 51.205 0 50.61V11.845c0-.595.482-1.077 1.077-1.077H61.38c.595 0 1.077.482 1.077 1.077V50.61c0 .595-.482 1.077-1.077 1.077z" fill="#73af00"/><path d="M30.668 16.493L7.972 30.308a1.08 1.08 0 0 0 0 1.84l22.696 13.815c.344.21.776.21 1.12 0l22.696-13.815a1.08 1.08 0 0 0 0-1.84L31.788 16.493c-.344-.21-.776-.21-1.12 0z" fill="#ffe15a"/><path d="M31.228 39.842c4.758 0 8.615-3.857 8.615-8.614s-3.857-8.615-8.614-8.615-8.614 3.857-8.614 8.615 3.857 8.614 8.614 8.614z" fill="#41479b"/><g fill="#f5f5f5"><path d="M23.836 26.82a8.55 8.55 0 0 0-.928 2.205c4.775-.36 11.84.977 16.336 5.34a8.55 8.55 0 0 0 .56-2.381c-4.643-3.908-11.06-5.297-15.968-5.163zm7.75 7.348l.23.688.725.006c.094.001.133.12.057.176l-.583.43.22.7c.028.1-.074.164-.15.1l-.6-.422-.6.422c-.076.055-.178-.02-.15-.1l.22-.7-.583-.43c-.075-.056-.037-.176.057-.176l.725-.006.23-.688c.03-.1.156-.1.185 0zm2.817 1.78l.1.296.312.002c.04 0 .057.052.025.076l-.25.185.094.297c.012.04-.032.07-.065.047l-.254-.18-.254.18c-.033.023-.077-.008-.065-.047l.094-.297-.25-.185c-.032-.024-.016-.076.025-.076l.312-.002.1-.296c.013-.038.067-.038.08 0zm-4.036-3.087l.1.296.312.002c.04 0 .057.052.025.076l-.25.185.094.298c.012.038-.032.07-.064.047l-.254-.18-.254.18c-.033.024-.077-.008-.064-.047l.094-.298-.25-.185c-.032-.024-.016-.075.025-.076l.312-.002.1-.296c.013-.038.067-.038.08 0z"/><use xlink:href="#B"/><path d="M29.473 35.844l.1.296.312.002c.04 0 .057.052.025.076l-.25.185.094.297c.012.038-.032.07-.064.047l-.254-.18-.254.18c-.033.024-.077-.008-.065-.047l.094-.297-.25-.185c-.032-.024-.016-.075.025-.076l.312-.002.1-.296c.013-.038.067-.038.08 0zm-2.516-3.548l.08.242.255.002c.033 0 .047.042.02.062l-.205.152.077.243c.01.032-.026.058-.053.038l-.208-.148-.208.148c-.027.02-.063-.007-.053-.038l.077-.243-.205-.152c-.026-.02-.013-.062.02-.062l.255-.002.08-.242c.01-.03.055-.03.065 0zM34.62 27.3l.1.303.32.002c.04 0 .058.053.025.078l-.257.2.096.304c.013.04-.032.072-.066.048l-.26-.186-.26.186c-.034.024-.078-.01-.066-.048l.096-.304-.257-.2c-.033-.024-.016-.077.025-.078l.32-.002.1-.303c.013-.04.07-.04.082 0zm-9.368 3.515l.08.242.255.002c.033 0 .047.042.02.062l-.205.15.077.243c.01.032-.026.058-.053.038l-.208-.148-.208.148c-.027.02-.063-.007-.053-.038l.077-.243-.205-.15c-.026-.02-.013-.062.02-.062l.255-.002.08-.242c.01-.03.055-.03.065 0zm1.232 3.41l.122.367.386.003c.05 0 .07.064.03.094l-.3.23.117.368c.015.048-.04.087-.08.058l-.314-.225-.314.225c-.04.03-.095-.01-.08-.058l.117-.368-.3-.23c-.04-.03-.02-.094.03-.094l.386-.003.122-.367c.016-.047.083-.047.1 0zm9.49 1.798l.077.23.243.002c.032 0 .044.04.02.06l-.196.145.073.232c.01.03-.025.055-.05.036l-.198-.14-.198.14c-.026.018-.06-.006-.05-.036l.073-.232-.196-.145c-.025-.02-.012-.06.02-.06l.243-.002.077-.23c.01-.03.052-.03.062 0zm.85-1.76l.1.296h.312c.04 0 .057.052.025.076l-.25.185.094.297c.012.04-.032.07-.065.047l-.254-.18-.254.18c-.033.023-.077-.008-.064-.047l.094-.297-.25-.185c-.032-.024-.016-.076.025-.076h.312l.1-.296c.013-.038.067-.038.08 0z"/></g></g><defs><clipPath id="A"><path fill="#fff" d="M0 0h62.456v62.456H0z"/></clipPath><path id="B" d="M24.9 32.502l.1.296.312.002c.04 0 .057.052.025.076l-.25.185.094.297c.012.038-.032.07-.064.047l-.254-.18-.254.18c-.033.024-.077-.008-.065-.047l.094-.297-.25-.185c-.032-.024-.016-.075.025-.076l.312-.002.1-.296c.013-.038.067-.038.08 0z"/></defs></svg>