<svg xmlns="http://www.w3.org/2000/svg" width="108" height="103" fill="#fff"><path d="M91.716 79.157h14.777c.672-2.588 1.008-5.5.896-8.196H91.716c-1.903 0-3.36-1.402-3.36-3.235s1.455-3.235 3.36-3.235h14.777c-5.485-24.696-35.6-48.637-67.73-38.93C19.843 31.274 4.617 47.774.923 64.5H15.7c1.903 0 3.36 1.402 3.36 3.235s-1.455 3.235-3.36 3.235H.027c-.112 2.696.112 5.608.896 8.196H15.7c1.903 0 3.36 1.402 3.36 3.235s-1.455 3.235-3.36 3.235H3.72C12.8 99.863 36.523 103 53.764 103s40.862-3.127 49.93-17.363H91.716c-1.903 0-3.36-1.402-3.36-3.235 0-1.725 1.567-3.235 3.36-3.235zm-56.088-31.06c3.47 0 6.157 2.696 6.157 5.93s-2.8 5.93-6.157 5.93c-3.47 0-6.157-2.696-6.157-5.93s2.8-5.93 6.157-5.93zm18.136 45.725C45.48 103.098 29.47 97.5 29.47 85.196c0-1.833 1.455-3.235 3.36-3.235s3.36 1.402 3.36 3.235C36.2 88.97 39.325 92 43.243 92c3.36 0 6.157-2.265 6.94-5.284-6.38-2.804-9.852-12.5-5.486-16.5 2.127-2.05 5.15-2.05 8.06-1.94 3.806 0 7.613-.43 10.076 1.94 4.366 4.098.784 13.804-5.486 16.5.784 3.02 3.583 5.284 6.94 5.284 3.918 0 7.053-3.02 7.053-6.794 0-1.833 1.455-3.235 3.36-3.235s3.36 1.402 3.36 3.235c-.112 12.294-16 17.902-24.293 8.627zM71.788 59.96c-3.47 0-6.157-2.696-6.157-5.93s2.8-5.93 6.157-5.93c3.47 0 6.157 2.696 6.157 5.93s-2.8 5.93-6.157 5.93zM57.906 74.735c-.896-.216-2.687-.108-5.262-.108l-3.247.108C49.174 77.108 51.525 81 53.652 81c2.24 0 4.6-3.882 4.254-6.255zM33.837 20.5C29.582 10.57 21.074 3.127 10.44 0c-5.6 8.196-5.375 31.06-4.927 40.765C12.8 31.706 22.753 24.48 33.837 20.5zm68.178 20.373c.448-9.814.672-32.676-4.926-40.872-10.86 3.126-19.255 10.89-23.4 20.5 11.3 4.088 21.16 11.422 28.325 20.373z"/></svg>