<svg xmlns="http://www.w3.org/2000/svg" width="140" height="140" fill="none"><g filter="url(#A)"><path d="M110.064 45.52H86.482V21.936A3.94 3.94 0 0 0 82.546 18H49.454a3.94 3.94 0 0 0-3.936 3.936V45.52H21.936A3.94 3.94 0 0 0 18 49.454v33.092a3.94 3.94 0 0 0 3.936 3.936H45.52v23.582A3.94 3.94 0 0 0 49.454 114h33.092a3.94 3.94 0 0 0 3.936-3.936V86.482h23.582A3.94 3.94 0 0 0 114 82.546V49.454a3.94 3.94 0 0 0-3.936-3.936z" fill="#2baa9b"/><path d="M72.88 49.486c-2.11-.535-4.408 1.322-5.132 4.188-.724 2.834.378 5.573 2.487 6.108s4.408-1.322 5.132-4.188c.945-3.684-1.984-5.982-2.487-6.108z" fill="#fff"/><path d="M61.797 59.31c2.104 0 3.8-2.354 3.8-5.258s-1.706-5.258-3.8-5.258-3.8 2.354-3.8 5.258 1.706 5.258 3.8 5.258z" fill="#fff"/><path d="M77.79 59.09c-2.204.03-3.967 2.14-3.904 5.384s1.89 4.754 4.093 4.723 3.967-1.574 3.904-4.817c-.063-4.25-3.558-5.3-4.093-5.3z" fill="#fff"/><path d="M58 61.63c-.205-2.932-2.13-5.185-4.298-5.034s-3.76 2.65-3.555 5.583 2.13 5.185 4.298 5.034 3.76-2.65 3.555-5.583z" fill="#fff"/><path d="M75.776 71.305c-1.89-1.67-3.495-3.023-6.014-6.517-1.26-1.732-2.676-1.952-4.188-1.952s-3.086.535-4.282 2.267-2.582 3.463-5.258 5.7-3.8 3.778-3.8 6.045 1.29 6.045 4.975 6.045 5.48-.82 8.407-.82 4.85 1.133 8.564 1.133c3.684 0 5.227-3.495 5.227-5.762s-.66-3.526-3.62-6.14z" fill="#fff"/></g><defs><filter id="A" x="0" y="0" width="140" height="140" filterUnits="userSpaceOnUse" color-interpolation-filters="sRGB"><feFlood flood-opacity="0" result="A"/><feColorMatrix in="SourceAlpha" values="0 0 0 0 0 0 0 0 0 0 0 0 0 0 0 0 0 0 127 0"/><feOffset dx="4" dy="4"/><feGaussianBlur stdDeviation="11"/><feColorMatrix values="0 0 0 0 0 0 0 0 0 0 0 0 0 0 0 0 0 0 0.25 0"/><feBlend in2="A"/><feBlend in="SourceGraphic"/></filter></defs></svg>