<svg width="27" height="547" viewBox="0 0 27 547" fill="none" xmlns="http://www.w3.org/2000/svg">
<g id="divider">
<path id="plus" d="M25.3894 268.189H18.7926V261.605C18.7926 260.719 18.0719 260 17.1849 260H9.81205C8.92509 260 8.20443 260.719 8.20443 261.605V268.189H1.60763C0.72066 268.189 0 268.908 0 269.793V277.207C0 278.092 0.72066 278.811 1.60763 278.811H8.20443V285.396C8.20443 286.281 8.92509 287 9.81205 287H17.1849C18.0719 287 18.7926 286.281 18.7926 285.396V278.811H25.3894C26.2763 278.811 26.997 278.092 26.997 277.207V269.848C27.0524 268.908 26.3318 268.189 25.3894 268.189Z" fill="white"/>
<line id="Line 7" x1="13" y1="-8.74228e-08" x2="13" y2="232" stroke="white" stroke-width="4"/>
<line id="Line 8" x1="13" y1="315" x2="13" y2="547" stroke="white" stroke-width="4"/>
</g>
</svg>
