<svg xmlns="http://www.w3.org/2000/svg" width="109" height="103" fill="#fff"><path d="M10.13 61.543c.2-1.205 2.3-17.266 4.216-32.222a39.11 39.11 0 0 1 3.513-12.246C7.722 22.093.796 32.533.796 44.578v12.648c0 5.922 3.915 11.042 9.235 12.85-.4-2.8-.4-5.722.1-8.532zm81.1-44.47c1.807 3.814 3 7.93 3.513 12.347l4.216 32.222c.502 2.8.502 5.722 0 8.532 5.42-1.807 9.235-6.826 9.235-12.85V44.578c.1-12.046-6.826-22.485-16.965-27.504zM59.218 90.15c-1.606-.903-3.212-1.907-4.618-3.112-1.405 1.205-3 2.208-4.617 3.112-3.714 2.008-7.83 3-12.046 3.212C41.25 99.085 47.473 103 54.6 103s13.35-3.915 16.663-9.637a29.46 29.46 0 0 1-12.046-3.212zM78.6 85.935c4.818-1.606 8.934-4.818 11.443-9.135 2.6-4.316 3.513-9.335 2.7-14.254-.1-.903-2.6-19.875-4.216-32.423C86.52 12.958 71.866.01 54.6.01a34.28 34.28 0 0 0-34.029 30.114l-4.216 32.423c-.803 4.92.2 9.938 2.7 14.254 2.6 4.316 6.726 7.63 11.444 9.135 2.208.703 4.417 1.104 6.525 1.104 5.32 0 10.44-2.008 14.254-5.62v-2.7c-.903-.502-2.108-1.205-3.313-2.108-3.915-2.8-5.922-5.922-5.922-9.034 0-6.324 4.618-10.038 12.347-10.038s12.347 3.714 12.347 10.038c0 3.212-2.008 6.224-5.922 9.034-1.205.903-2.4 1.606-3.313 2.108v2.7c3.814 3.513 8.934 5.62 14.254 5.62 2.4 0 4.618-.402 6.826-1.104zm-43.766-10.74H28.5V68.87h6.324v6.324zm9.034-26h-6.324V37.652h6.324v11.544zm36.74 26h-6.324V68.87H80.6v6.324zm-15.358-26V37.652h6.324v11.544H65.24zm-4.617 18.37c0-1.104 0-3.714-6.023-3.714s-6.023 2.6-6.023 3.714c0 1.606 3.212 4.116 6.023 5.722 3.614-1.907 6.023-4.417 6.023-5.722z"/></svg>