<svg xmlns="http://www.w3.org/2000/svg" xmlns:xlink="http://www.w3.org/1999/xlink" width="63" height="63" fill="none"><g clip-path="url(#A)"><path d="M61.923 51.687H1.62c-.595 0-1.077-.482-1.077-1.077V11.845c0-.595.482-1.077 1.077-1.077h60.302c.595 0 1.077.482 1.077 1.077V50.61c0 .595-.482 1.077-1.077 1.077z" fill="#f5f5f5"/><g fill="#ff4b55"><path d="M63 13.916H.544v-2.07c0-.595.482-1.077 1.077-1.077h60.302c.595 0 1.077.482 1.077 1.077v2.07zm0 9.444H.544v3.148H63V23.36zm0-6.297H.544v3.148H63v-3.148zm0 15.74H1.62c-.595 0-1.077-.482-1.077-1.077v-2.07H63v3.148zm0 9.443H.544v3.148H63v-3.148zm-1.077 9.442H1.62c-.595 0-1.077-.482-1.077-1.077v-2.07H63v2.07c0 .595-.482 1.077-1.077 1.077zM63 35.95H.544v3.148H63V35.95z"/></g><path d="M28.542 10.768H1.62c-.595 0-1.077.482-1.077 1.077v19.88c0 .595.482 1.077 1.077 1.077h26.92c.595 0 1.077-.482 1.077-1.077v-19.88c0-.595-.482-1.077-1.077-1.077z" fill="#41479b"/><g fill="#f5f5f5"><use xlink:href="#B"/><use xlink:href="#C"/><path d="M3.568 20.718l.238.715.753.006c.098.001.138.125.06.183l-.606.448.227.718c.03.093-.076.17-.156.113l-.613-.438-.613.438c-.08.057-.185-.02-.156-.113l.227-.718-.606-.448c-.078-.058-.038-.182.06-.183l.753-.006.238-.715c.03-.093.162-.093.192 0zm0 3.74l.238.715.753.006c.098.001.138.125.06.183l-.606.448.227.718c.03.093-.076.17-.156.113l-.613-.438-.613.438c-.08.057-.185-.02-.156-.113l.227-.718-.606-.448c-.078-.058-.038-.182.06-.183l.753-.006.238-.715c.03-.093.162-.093.192 0z"/><path d="M3.568 28.197l.238.715.753.006c.098.001.138.125.06.183l-.606.448.227.718c.03.093-.076.17-.156.113l-.613-.438-.613.438c-.08.057-.185-.02-.156-.113l.227-.718-.606-.448c-.078-.058-.038-.182.06-.183l.753-.006.238-.715c.03-.093.162-.093.192 0zM6.47 15.073l.238.715.753.006c.098.001.138.125.06.183l-.606.448.227.718c.03.093-.076.17-.156.113l-.613-.438-.613.438c-.08.057-.185-.02-.156-.113l.227-.718-.606-.448c-.078-.058-.038-.182.06-.183l.753-.006.238-.715c.03-.092.162-.092.192 0zm0 3.74l.238.715.753.006c.098.001.138.125.06.183l-.606.448.227.718c.03.093-.076.17-.156.113l-.613-.438-.613.438c-.08.057-.185-.02-.156-.113l.227-.718-.606-.448c-.078-.058-.038-.182.06-.183l.753-.006.238-.715c.03-.093.162-.093.192 0zm0 3.74l.238.715.753.006c.098.001.138.125.06.183l-.606.448.227.718c.03.093-.076.17-.156.113l-.613-.438-.613.438c-.08.057-.185-.02-.156-.113l.227-.718-.606-.448c-.078-.058-.038-.182.06-.183l.753-.006.238-.715c.03-.093.162-.093.192 0zm0 3.738l.238.715.753.006c.098.001.138.125.06.183l-.606.448.227.718c.03.093-.076.17-.156.113l-.613-.438-.613.438c-.08.057-.185-.02-.156-.113l.227-.718-.606-.448c-.078-.058-.038-.182.06-.183l.753-.006.238-.715c.03-.093.162-.093.192 0z"/><use xlink:href="#D"/><use xlink:href="#E"/><path d="M9.373 20.72l.238.715.754.006c.098.001.138.125.06.183l-.606.448.227.718c.03.093-.076.17-.156.113l-.613-.438-.613.438c-.08.057-.185-.02-.156-.113l.227-.718-.606-.448c-.078-.058-.038-.182.06-.183l.753-.006.238-.715c.03-.092.162-.092.192 0zm0 3.738l.238.715.754.006c.098.001.138.125.06.183l-.606.448.227.718c.03.093-.076.17-.156.113l-.613-.438-.613.438c-.08.057-.185-.02-.156-.113l.227-.718-.606-.448c-.078-.058-.038-.182.06-.183l.753-.006.238-.715c.03-.093.162-.093.192 0z"/><path d="M9.373 28.197l.238.715.754.006c.098.001.138.125.06.183l-.606.448.227.718c.03.093-.076.17-.156.113l-.613-.438-.613.438c-.08.057-.185-.02-.156-.113l.227-.718-.606-.448c-.078-.058-.038-.182.06-.183l.753-.006.238-.715c.03-.093.162-.093.192 0zm2.903-13.124l.238.715.754.006c.098.001.138.125.06.183l-.606.448.227.718c.03.093-.076.17-.156.113l-.613-.438-.613.438c-.08.057-.185-.02-.156-.113l.227-.718-.606-.448c-.078-.058-.038-.182.06-.183l.753-.006.238-.715c.03-.092.162-.092.192 0zm0 3.74l.238.715.754.006c.098.001.138.125.06.183l-.606.448.227.718c.03.093-.076.17-.156.113l-.613-.438-.613.438c-.08.057-.185-.02-.156-.113l.227-.718-.606-.448c-.078-.058-.038-.182.06-.183l.753-.006.238-.715c.03-.093.162-.093.192 0zm0 3.74l.238.715.754.006c.098.001.138.125.06.183l-.606.448.227.718c.03.093-.076.17-.156.113l-.613-.438-.613.438c-.08.057-.185-.02-.156-.113l.227-.718-.606-.448c-.078-.058-.038-.182.06-.183l.753-.006.238-.715c.03-.093.162-.093.192 0zm0 3.738l.238.715.754.006c.098.001.138.125.06.183l-.606.448.227.718c.03.093-.076.17-.156.113l-.613-.438-.613.438c-.08.057-.185-.02-.156-.113l.227-.718-.606-.448c-.078-.058-.038-.182.06-.183l.753-.006.238-.715c.03-.093.162-.093.192 0z"/><use xlink:href="#F"/><use xlink:href="#G"/><path d="M15.178 20.72l.238.715.753.006c.098.001.138.125.06.183l-.606.448.227.718c.03.093-.077.17-.156.113l-.613-.438-.613.438c-.08.057-.185-.02-.156-.113l.227-.718-.606-.448c-.078-.058-.038-.182.06-.183l.753-.006.238-.715c.03-.092.162-.092.193 0zm0 3.738l.238.715.753.006c.098.001.138.125.06.183l-.606.448.227.718c.03.093-.077.17-.156.113l-.613-.438-.613.438c-.08.057-.185-.02-.156-.113l.227-.718-.606-.448c-.078-.058-.038-.182.06-.183l.753-.006.238-.715c.03-.093.162-.093.193 0z"/><path d="M15.178 28.197l.238.715.753.006c.098.001.138.125.06.183l-.606.448.227.718c.03.093-.077.17-.156.113l-.613-.438-.613.438c-.08.057-.185-.02-.156-.113l.227-.718-.606-.448c-.078-.058-.038-.182.06-.183l.753-.006.238-.715c.03-.093.162-.093.193 0zm2.902-13.124l.238.715.753.006c.098.001.138.125.06.183l-.606.448.227.718c.03.093-.076.17-.156.113l-.613-.438-.613.438c-.08.057-.185-.02-.156-.113l.227-.718-.606-.448c-.078-.058-.038-.182.06-.183l.753-.006.238-.715c.03-.092.162-.092.193 0z"/><use xlink:href="#H"/><path d="M18.08 22.552l.238.715.753.006c.098.001.138.125.06.183l-.606.448.227.718c.03.093-.076.17-.156.113l-.613-.438-.613.438c-.08.057-.185-.02-.156-.113l.227-.718-.606-.448c-.078-.058-.038-.182.06-.183l.753-.006.238-.715c.03-.093.162-.093.193 0zm0 3.738l.238.715.753.006c.098.001.138.125.06.183l-.606.448.227.718c.03.093-.076.17-.156.113l-.613-.438-.613.438c-.08.057-.185-.02-.156-.113l.227-.718-.606-.448c-.078-.058-.038-.182.06-.183l.753-.006.238-.715c.03-.093.162-.093.193 0z"/><use xlink:href="#I"/><use xlink:href="#J"/><path d="M20.983 20.72l.238.715.753.006c.098.001.138.125.06.183l-.606.448.227.718c.03.093-.076.17-.156.113l-.613-.438-.613.438c-.08.057-.185-.02-.156-.113l.227-.718-.606-.448c-.08-.058-.038-.182.06-.183l.753-.006.238-.715c.03-.092.162-.092.193 0zm0 3.738l.238.715.753.006c.098.001.138.125.06.183l-.606.448.227.718c.03.093-.076.17-.156.113l-.613-.438-.613.438c-.08.057-.185-.02-.156-.113l.227-.718-.606-.448c-.08-.058-.038-.182.06-.183l.753-.006.238-.715c.03-.093.162-.093.193 0z"/><path d="M20.983 28.197l.238.715.753.006c.098.001.138.125.06.183l-.606.448.227.718c.03.093-.076.17-.156.113l-.613-.438-.613.438c-.08.057-.185-.02-.156-.113l.227-.718-.606-.448c-.08-.058-.038-.182.06-.183l.753-.006.238-.715c.03-.093.162-.093.193 0zm2.902-13.124l.238.715.753.006c.098.001.138.125.06.183l-.606.448.227.718c.03.093-.076.17-.156.113l-.613-.438-.613.438c-.08.057-.185-.02-.156-.113l.227-.718-.606-.448c-.078-.058-.038-.182.06-.183l.753-.006.238-.715c.03-.092.162-.092.192 0zm0 3.74l.238.715.753.006c.098.001.138.125.06.183l-.606.448.227.718c.03.093-.076.17-.156.113l-.613-.438-.613.438c-.08.057-.185-.02-.156-.113l.227-.718-.606-.448c-.078-.058-.038-.182.06-.183l.753-.006.238-.715c.03-.093.162-.093.192 0zm0 3.74l.238.715.753.006c.098.001.138.125.06.183l-.606.448.227.718c.03.093-.076.17-.156.113l-.613-.438-.613.438c-.08.057-.185-.02-.156-.113l.227-.718-.606-.448c-.078-.058-.038-.182.06-.183l.753-.006.238-.715c.03-.093.162-.093.192 0zm0 3.738l.238.715.753.006c.098.001.138.125.06.183l-.606.448.227.718c.03.093-.076.17-.156.113l-.613-.438-.613.438c-.08.057-.185-.02-.156-.113l.227-.718-.606-.448c-.078-.058-.038-.182.06-.183l.753-.006.238-.715c.03-.093.162-.093.192 0z"/><use xlink:href="#K"/><use xlink:href="#L"/><path d="M26.787 20.72l.238.715.753.006c.098.001.138.125.06.183l-.606.448.227.718c.03.093-.077.17-.156.113l-.613-.438-.613.438c-.08.057-.185-.02-.156-.113l.227-.718-.606-.448c-.078-.058-.038-.182.06-.183l.753-.006.238-.715c.03-.092.162-.092.192 0zm0 3.738l.238.715.753.006c.098.001.138.125.06.183l-.606.448.227.718c.03.093-.077.17-.156.113l-.613-.438-.613.438c-.08.057-.185-.02-.156-.113l.227-.718-.606-.448c-.078-.058-.038-.182.06-.183l.753-.006.238-.715c.03-.093.162-.093.192 0zm0 3.74l.238.715.753.006c.098.001.138.125.06.183l-.606.448.227.718c.03.093-.077.17-.156.113l-.613-.438-.613.438c-.08.057-.185-.02-.156-.113l.227-.718-.606-.448c-.078-.058-.038-.182.06-.183l.753-.006.238-.715c.03-.093.162-.093.192 0z"/></g></g><defs><clipPath id="A"><path fill="#fff" d="M.544 0H63v62.456H.544z"/></clipPath><path id="B" d="M3.568 13.24l.238.715.753.006c.098.001.138.125.06.183l-.606.448.227.718c.03.093-.076.17-.156.113l-.613-.438-.613.438c-.08.057-.185-.02-.156-.113l.227-.718-.606-.448c-.078-.058-.038-.182.06-.183l.753-.006.238-.715c.03-.093.162-.093.192 0z"/><path id="C" d="M3.568 16.98l.238.715.753.006c.098.001.138.125.06.183l-.606.448.227.718c.03.093-.076.17-.156.113l-.613-.438-.613.438c-.08.057-.185-.02-.156-.113l.227-.718-.606-.448c-.078-.058-.038-.182.06-.183l.753-.006.238-.715c.03-.092.162-.092.192 0z"/><path id="D" d="M9.373 13.24l.238.715.754.006c.098.001.138.125.06.183l-.606.448.227.718c.03.093-.076.17-.156.113l-.613-.438-.613.438c-.08.057-.185-.02-.156-.113l.227-.718-.606-.448c-.078-.058-.038-.182.06-.183l.753-.006.238-.715c.03-.093.162-.093.192 0z"/><path id="E" d="M9.373 16.98l.238.715.754.006c.098.001.138.125.06.183l-.606.448.227.718c.03.093-.076.17-.156.113l-.613-.438-.613.438c-.08.057-.185-.02-.156-.113l.227-.718-.606-.448c-.078-.058-.038-.182.06-.183l.753-.006.238-.715c.03-.092.162-.092.192 0z"/><path id="F" d="M15.178 13.24l.238.715.753.006c.098.001.138.125.06.183l-.606.448.227.718c.03.093-.077.17-.156.113l-.613-.438-.613.438c-.08.057-.185-.02-.156-.113l.227-.718-.606-.448c-.078-.058-.038-.182.06-.183l.753-.006.238-.715c.03-.093.162-.093.193 0z"/><path id="G" d="M15.178 16.98l.238.715.753.006c.098.001.138.125.06.183l-.606.448.227.718c.03.093-.077.17-.156.113l-.613-.438-.613.438c-.08.057-.185-.02-.156-.113l.227-.718-.606-.448c-.078-.058-.038-.182.06-.183l.753-.006.238-.715c.03-.092.162-.092.193 0z"/><path id="H" d="M18.08 18.813l.238.715.753.006c.098.001.138.125.06.183l-.606.448.227.718c.03.093-.076.17-.156.113l-.613-.438-.613.438c-.08.057-.185-.02-.156-.113l.227-.718-.606-.448c-.078-.058-.038-.182.06-.183l.753-.006.238-.715c.03-.093.162-.093.193 0z"/><path id="I" d="M20.983 13.24l.238.715.753.006c.098.001.138.125.06.183l-.606.448.227.718c.03.093-.076.17-.156.113l-.613-.438-.613.438c-.08.057-.185-.02-.156-.113l.227-.718-.606-.448c-.08-.058-.038-.182.06-.183l.753-.006.238-.715c.03-.093.162-.093.193 0z"/><path id="J" d="M20.983 16.98l.238.715.753.006c.098.001.138.125.06.183l-.606.448.227.718c.03.093-.076.17-.156.113l-.613-.438-.613.438c-.08.057-.185-.02-.156-.113l.227-.718-.606-.448c-.08-.058-.038-.182.06-.183l.753-.006.238-.715c.03-.092.162-.092.193 0z"/><path id="K" d="M26.787 13.24l.238.715.753.006c.098.001.138.125.06.183l-.606.448.227.718c.03.093-.077.17-.156.113l-.613-.438-.613.438c-.08.057-.185-.02-.156-.113l.227-.718-.606-.448c-.078-.058-.038-.182.06-.183l.753-.006.238-.715c.03-.093.162-.093.192 0z"/><path id="L" d="M26.787 16.98l.238.715.753.006c.098.001.138.125.06.183l-.606.448.227.718c.03.093-.077.17-.156.113l-.613-.438-.613.438c-.08.057-.185-.02-.156-.113l.227-.718-.606-.448c-.078-.058-.038-.182.06-.183l.753-.006.238-.715c.03-.092.162-.092.192 0z"/></defs></svg>