<svg width="63" height="63" viewBox="0 0 63 63" fill="none" xmlns="http://www.w3.org/2000/svg">
<g clip-path="url(#clip0)">
<path d="M61.923 51.6874H1.6213C1.02663 51.6874 0.544434 51.2052 0.544434 50.6105V11.8451C0.544434 11.2504 1.02663 10.7682 1.6213 10.7682H61.9231C62.5178 10.7682 63 11.2504 63 11.8451V50.6105C62.9999 51.2053 62.5177 51.6874 61.923 51.6874Z" fill="#F5F5F5"/>
<path d="M62.9999 13.916H0.544434V11.8451C0.544434 11.2504 1.02663 10.7682 1.6213 10.7682H61.9231C62.5178 10.7682 63 11.2504 63 11.8451L62.9999 13.916Z" fill="#FF4B55"/>
<path d="M62.9999 23.3587H0.544434V26.5064H62.9999V23.3587Z" fill="#FF4B55"/>
<path d="M62.9999 17.0631H0.544434V20.2108H62.9999V17.0631Z" fill="#FF4B55"/>
<path d="M62.9999 32.8016H1.6213C1.02663 32.8016 0.544434 32.3194 0.544434 31.7248V29.6539H62.9999V32.8016Z" fill="#FF4B55"/>
<path d="M62.9999 42.2454H0.544434V45.393H62.9999V42.2454Z" fill="#FF4B55"/>
<path d="M61.923 51.6873H1.6213C1.02663 51.6873 0.544434 51.2051 0.544434 50.6105V48.5397H62.9999V50.6106C62.9999 51.2053 62.5177 51.6873 61.923 51.6873Z" fill="#FF4B55"/>
<path d="M62.9999 35.9498H0.544434V39.0975H62.9999V35.9498Z" fill="#FF4B55"/>
<path d="M28.5417 10.7683H1.6213C1.02663 10.7683 0.544434 11.2504 0.544434 11.8451V31.7247C0.544434 32.3193 1.02663 32.8015 1.6213 32.8015H28.5418C29.1365 32.8015 29.6187 32.3193 29.6187 31.7247V11.8451C29.6185 11.2504 29.1363 10.7683 28.5417 10.7683Z" fill="#41479B"/>
<path d="M3.56822 13.24L3.80657 13.9548L4.56006 13.9605C4.65765 13.9614 4.69803 14.0858 4.61959 14.1437L4.01346 14.5914L4.24083 15.3098C4.27035 15.4027 4.16435 15.4798 4.08494 15.423L3.47197 14.9849L2.85901 15.4231C2.7796 15.4798 2.67384 15.4028 2.70311 15.3099L2.93049 14.5915L2.32436 14.1439C2.24592 14.0858 2.2863 13.9615 2.38388 13.9606L3.13737 13.9549L3.37573 13.2401C3.40647 13.1474 3.53723 13.1474 3.56822 13.24Z" fill="#F5F5F5"/>
<path d="M3.56822 16.9791L3.80657 17.6939L4.56006 17.6997C4.65765 17.7005 4.69803 17.825 4.61959 17.8829L4.01346 18.3306L4.24083 19.0489C4.27035 19.1419 4.16435 19.219 4.08494 19.1621L3.47197 18.7241L2.85901 19.1623C2.7796 19.219 2.67384 19.142 2.70311 19.0491L2.93049 18.3307L2.32436 17.883C2.24592 17.825 2.2863 17.7007 2.38388 17.6998L3.13737 17.6941L3.37573 16.9792C3.40647 16.8867 3.53723 16.8867 3.56822 16.9791Z" fill="#F5F5F5"/>
<path d="M3.56822 20.7184L3.80657 21.4332L4.56006 21.4389C4.65765 21.4398 4.69803 21.5642 4.61959 21.6222L4.01346 22.0698L4.24083 22.7882C4.27035 22.8811 4.16435 22.9582 4.08494 22.9014L3.47197 22.4634L2.85901 22.9015C2.7796 22.9582 2.67384 22.8813 2.70311 22.7883L2.93049 22.07L2.32436 21.6223C2.24592 21.5642 2.2863 21.4399 2.38388 21.4391L3.13737 21.4333L3.37573 20.7185C3.40647 20.6259 3.53723 20.6259 3.56822 20.7184Z" fill="#F5F5F5"/>
<path d="M3.56822 24.4578L3.80657 25.1726L4.56006 25.1783C4.65765 25.1792 4.69803 25.3036 4.61959 25.3616L4.01346 25.8092L4.24083 26.5276C4.27035 26.6206 4.16435 26.6977 4.08494 26.6408L3.47197 26.2028L2.85901 26.6409C2.7796 26.6976 2.67384 26.6207 2.70311 26.5277L2.93049 25.8094L2.32436 25.3617C2.24592 25.3036 2.2863 25.1793 2.38388 25.1785L3.13737 25.1727L3.37573 24.4579C3.40647 24.3652 3.53723 24.3652 3.56822 24.4578Z" fill="#F5F5F5"/>
<path d="M3.56822 28.1971L3.80657 28.9119L4.56006 28.9176C4.65765 28.9185 4.69803 29.0429 4.61959 29.1008L4.01346 29.5485L4.24083 30.2669C4.27035 30.3598 4.16435 30.4369 4.08494 30.3801L3.47197 29.942L2.85901 30.3802C2.7796 30.4369 2.67384 30.36 2.70311 30.267L2.93049 29.5486L2.32436 29.101C2.24592 29.0429 2.2863 28.9186 2.38388 28.9178L3.13737 28.912L3.37573 28.1972C3.40647 28.1044 3.53723 28.1044 3.56822 28.1971Z" fill="#F5F5F5"/>
<path d="M6.47056 15.0731L6.70892 15.788L7.46241 15.7937C7.56 15.7945 7.60037 15.919 7.52194 15.9769L6.9158 16.4246L7.14318 17.1429C7.1727 17.2359 7.06669 17.313 6.98728 17.2561L6.37432 16.818L5.76135 17.2561C5.68194 17.3129 5.57618 17.2359 5.60546 17.1429L5.83283 16.4246L5.2267 15.9769C5.14826 15.9188 5.18864 15.7945 5.28623 15.7937L6.03972 15.788L6.27807 15.0731C6.30869 14.9807 6.4397 14.9807 6.47056 15.0731Z" fill="#F5F5F5"/>
<path d="M6.47056 18.8125L6.70892 19.5274L7.46241 19.5331C7.56 19.534 7.60037 19.6584 7.52194 19.7163L6.9158 20.164L7.14318 20.8824C7.1727 20.9753 7.06669 21.0524 6.98728 20.9956L6.37432 20.5574L5.76135 20.9956C5.68194 21.0523 5.57618 20.9754 5.60546 20.8824L5.83283 20.164L5.2267 19.7163C5.14826 19.6583 5.18864 19.534 5.28623 19.5331L6.03972 19.5274L6.27807 18.8125C6.30869 18.72 6.4397 18.72 6.47056 18.8125Z" fill="#F5F5F5"/>
<path d="M6.47056 22.5518L6.70892 23.2666L7.46241 23.2724C7.56 23.2732 7.60037 23.3976 7.52194 23.4556L6.9158 23.9033L7.14318 24.6216C7.1727 24.7146 7.06669 24.7917 6.98728 24.7348L6.37432 24.2966L5.76135 24.7348C5.68194 24.7915 5.57618 24.7146 5.60546 24.6216L5.83283 23.9033L5.2267 23.4556C5.14826 23.3975 5.18864 23.2732 5.28623 23.2724L6.03972 23.2666L6.27807 22.5518C6.30869 22.4592 6.4397 22.4592 6.47056 22.5518Z" fill="#F5F5F5"/>
<path d="M6.47056 26.2911L6.70892 27.0059L7.46241 27.0116C7.56 27.0125 7.60037 27.1369 7.52194 27.1949L6.9158 27.6425L7.14318 28.3609C7.1727 28.4539 7.06669 28.5309 6.98728 28.4741L6.37432 28.0359L5.76135 28.4741C5.68194 28.5308 5.57618 28.4539 5.60546 28.3609L5.83283 27.6425L5.2267 27.1949C5.14826 27.1368 5.18864 27.0125 5.28623 27.0116L6.03972 27.0059L6.27807 26.2911C6.30869 26.1986 6.4397 26.1986 6.47056 26.2911Z" fill="#F5F5F5"/>
<path d="M9.37291 13.2398L9.61126 13.9547L10.3648 13.9604C10.4623 13.9613 10.5027 14.0857 10.4243 14.1436L9.81815 14.5913L10.0455 15.3097C10.075 15.4026 9.96904 15.4797 9.88963 15.4229L9.27666 14.9847L8.6637 15.4229C8.58428 15.4796 8.47852 15.4026 8.5078 15.3097L8.73518 14.5913L8.12904 14.1436C8.05061 14.0856 8.09098 13.9613 8.18857 13.9604L8.94206 13.9547L9.18042 13.2398C9.21116 13.1473 9.34204 13.1473 9.37291 13.2398Z" fill="#F5F5F5"/>
<path d="M9.37291 16.9791L9.61126 17.694L10.3648 17.6997C10.4623 17.7005 10.5027 17.825 10.4243 17.8829L9.81815 18.3306L10.0455 19.0489C10.075 19.1419 9.96904 19.219 9.88963 19.1621L9.27666 18.724L8.6637 19.1621C8.58428 19.2189 8.47852 19.1419 8.5078 19.0489L8.73518 18.3306L8.12904 17.8829C8.05061 17.8248 8.09098 17.7005 8.18857 17.6997L8.94206 17.694L9.18042 16.9791C9.21116 16.8867 9.34204 16.8867 9.37291 16.9791Z" fill="#F5F5F5"/>
<path d="M9.37291 20.7185L9.61126 21.4333L10.3648 21.439C10.4623 21.4399 10.5027 21.5643 10.4243 21.6222L9.81815 22.0699L10.0455 22.7883C10.075 22.8812 9.96904 22.9583 9.88963 22.9015L9.27666 22.4633L8.6637 22.9015C8.58428 22.9582 8.47852 22.8812 8.5078 22.7883L8.73518 22.0699L8.12904 21.6222C8.05061 21.5642 8.09098 21.4399 8.18857 21.439L8.94206 21.4333L9.18042 20.7185C9.21116 20.626 9.34204 20.626 9.37291 20.7185Z" fill="#F5F5F5"/>
<path d="M9.37291 24.4578L9.61126 25.1726L10.3648 25.1784C10.4623 25.1792 10.5027 25.3036 10.4243 25.3616L9.81815 25.8093L10.0455 26.5276C10.075 26.6206 9.96904 26.6977 9.88963 26.6408L9.27666 26.2027L8.6637 26.6408C8.58428 26.6975 8.47852 26.6206 8.5078 26.5276L8.73518 25.8093L8.12904 25.3616C8.05061 25.3035 8.09098 25.1792 8.18857 25.1784L8.94206 25.1726L9.18042 24.4578C9.21116 24.3652 9.34204 24.3652 9.37291 24.4578Z" fill="#F5F5F5"/>
<path d="M9.37291 28.1971L9.61126 28.9119L10.3648 28.9176C10.4623 28.9185 10.5027 29.0429 10.4243 29.1009L9.81815 29.5485L10.0455 30.2669C10.075 30.3599 9.96904 30.4369 9.88963 30.3801L9.27666 29.9419L8.6637 30.3801C8.58428 30.4368 8.47852 30.3599 8.5078 30.2669L8.73518 29.5485L8.12904 29.1009C8.05061 29.0428 8.09098 28.9185 8.18857 28.9176L8.94206 28.9119L9.18042 28.1971C9.21116 28.1044 9.34204 28.1044 9.37291 28.1971Z" fill="#F5F5F5"/>
<path d="M12.2755 15.0731L12.5138 15.788L13.2673 15.7937C13.3649 15.7945 13.4053 15.919 13.3269 15.9769L12.7207 16.4246L12.9481 17.1429C12.9776 17.2359 12.8716 17.313 12.7922 17.2561L12.1792 16.818L11.5663 17.2561C11.4869 17.3129 11.3811 17.2359 11.4104 17.1429L11.6378 16.4246L11.0316 15.9769C10.9532 15.9188 10.9936 15.7945 11.0912 15.7937L11.8446 15.788L12.083 15.0731C12.1136 14.9807 12.2446 14.9807 12.2755 15.0731Z" fill="#F5F5F5"/>
<path d="M12.2755 18.8125L12.5138 19.5274L13.2673 19.5331C13.3649 19.534 13.4053 19.6584 13.3269 19.7163L12.7207 20.164L12.9481 20.8824C12.9776 20.9753 12.8716 21.0524 12.7922 20.9956L12.1792 20.5574L11.5663 20.9956C11.4869 21.0523 11.3811 20.9754 11.4104 20.8824L11.6378 20.164L11.0316 19.7163C10.9532 19.6583 10.9936 19.534 11.0912 19.5331L11.8446 19.5274L12.083 18.8125C12.1136 18.72 12.2446 18.72 12.2755 18.8125Z" fill="#F5F5F5"/>
<path d="M12.2755 22.5518L12.5138 23.2666L13.2673 23.2724C13.3649 23.2732 13.4053 23.3976 13.3269 23.4556L12.7207 23.9033L12.9481 24.6216C12.9776 24.7146 12.8716 24.7917 12.7922 24.7348L12.1792 24.2966L11.5663 24.7348C11.4869 24.7915 11.3811 24.7146 11.4104 24.6216L11.6378 23.9033L11.0316 23.4556C10.9532 23.3975 10.9936 23.2732 11.0912 23.2724L11.8446 23.2666L12.083 22.5518C12.1136 22.4592 12.2446 22.4592 12.2755 22.5518Z" fill="#F5F5F5"/>
<path d="M12.2755 26.2911L12.5138 27.0059L13.2673 27.0116C13.3649 27.0125 13.4053 27.1369 13.3269 27.1949L12.7207 27.6425L12.9481 28.3609C12.9776 28.4539 12.8716 28.5309 12.7922 28.4741L12.1792 28.0359L11.5663 28.4741C11.4869 28.5308 11.3811 28.4539 11.4104 28.3609L11.6378 27.6425L11.0316 27.1949C10.9532 27.1368 10.9936 27.0125 11.0912 27.0116L11.8446 27.0059L12.083 26.2911C12.1136 26.1986 12.2446 26.1986 12.2755 26.2911Z" fill="#F5F5F5"/>
<path d="M15.1777 13.2398L15.4161 13.9547L16.1696 13.9604C16.2672 13.9613 16.3075 14.0857 16.2291 14.1436L15.623 14.5913L15.8503 15.3097C15.8799 15.4026 15.7738 15.4797 15.6944 15.4229L15.0813 14.9847L14.4684 15.4229C14.389 15.4796 14.2832 15.4026 14.3125 15.3097L14.5399 14.5913L13.9337 14.1436C13.8553 14.0856 13.8957 13.9613 13.9933 13.9604L14.7467 13.9547L14.9851 13.2398C15.016 13.1473 15.1469 13.1473 15.1777 13.2398Z" fill="#F5F5F5"/>
<path d="M15.1777 16.9791L15.4161 17.694L16.1696 17.6997C16.2672 17.7005 16.3075 17.825 16.2291 17.8829L15.623 18.3306L15.8503 19.0489C15.8799 19.1419 15.7738 19.219 15.6944 19.1621L15.0813 18.724L14.4684 19.1621C14.389 19.2189 14.2832 19.1419 14.3125 19.0489L14.5399 18.3306L13.9337 17.8829C13.8553 17.8248 13.8957 17.7005 13.9933 17.6997L14.7467 17.694L14.9851 16.9791C15.016 16.8867 15.1469 16.8867 15.1777 16.9791Z" fill="#F5F5F5"/>
<path d="M15.1777 20.7185L15.4161 21.4333L16.1696 21.439C16.2672 21.4399 16.3075 21.5643 16.2291 21.6222L15.623 22.0699L15.8503 22.7883C15.8799 22.8812 15.7738 22.9583 15.6944 22.9015L15.0813 22.4633L14.4684 22.9015C14.389 22.9582 14.2832 22.8812 14.3125 22.7883L14.5399 22.0699L13.9337 21.6222C13.8553 21.5642 13.8957 21.4399 13.9933 21.439L14.7467 21.4333L14.9851 20.7185C15.016 20.626 15.1469 20.626 15.1777 20.7185Z" fill="#F5F5F5"/>
<path d="M15.1777 24.4578L15.4161 25.1726L16.1696 25.1784C16.2672 25.1792 16.3075 25.3036 16.2291 25.3616L15.623 25.8093L15.8503 26.5276C15.8799 26.6206 15.7738 26.6977 15.6944 26.6408L15.0813 26.2027L14.4684 26.6408C14.389 26.6975 14.2832 26.6206 14.3125 26.5276L14.5399 25.8093L13.9337 25.3616C13.8553 25.3035 13.8957 25.1792 13.9933 25.1784L14.7467 25.1726L14.9851 24.4578C15.016 24.3652 15.1469 24.3652 15.1777 24.4578Z" fill="#F5F5F5"/>
<path d="M15.1777 28.1971L15.4161 28.9119L16.1696 28.9176C16.2672 28.9185 16.3075 29.0429 16.2291 29.1009L15.623 29.5485L15.8503 30.2669C15.8799 30.3599 15.7738 30.4369 15.6944 30.3801L15.0813 29.9419L14.4684 30.3801C14.389 30.4368 14.2832 30.3599 14.3125 30.2669L14.5399 29.5485L13.9337 29.1009C13.8553 29.0428 13.8957 28.9185 13.9933 28.9176L14.7467 28.9119L14.9851 28.1971C15.016 28.1044 15.1469 28.1044 15.1777 28.1971Z" fill="#F5F5F5"/>
<path d="M18.0802 15.0731L18.3185 15.788L19.072 15.7937C19.1696 15.7945 19.21 15.919 19.1316 15.9769L18.5254 16.4246L18.7528 17.1429C18.7823 17.2359 18.6763 17.313 18.5969 17.2561L17.9839 16.818L17.371 17.2561C17.2916 17.3129 17.1858 17.2359 17.2151 17.1429L17.4425 16.4246L16.8363 15.9769C16.7579 15.9188 16.7983 15.7945 16.8958 15.7937L17.6493 15.788L17.8877 15.0731C17.9186 14.9807 18.0493 14.9807 18.0802 15.0731Z" fill="#F5F5F5"/>
<path d="M18.0802 18.8125L18.3185 19.5274L19.072 19.5331C19.1696 19.534 19.21 19.6584 19.1316 19.7163L18.5254 20.164L18.7528 20.8824C18.7823 20.9753 18.6763 21.0524 18.5969 20.9956L17.9839 20.5574L17.371 20.9956C17.2916 21.0523 17.1858 20.9754 17.2151 20.8824L17.4425 20.164L16.8363 19.7163C16.7579 19.6583 16.7983 19.534 16.8958 19.5331L17.6493 19.5274L17.8877 18.8125C17.9186 18.72 18.0493 18.72 18.0802 18.8125Z" fill="#F5F5F5"/>
<path d="M18.0802 22.5518L18.3185 23.2666L19.072 23.2724C19.1696 23.2732 19.21 23.3976 19.1316 23.4556L18.5254 23.9033L18.7528 24.6216C18.7823 24.7146 18.6763 24.7917 18.5969 24.7348L17.9839 24.2966L17.371 24.7348C17.2916 24.7915 17.1858 24.7146 17.2151 24.6216L17.4425 23.9033L16.8363 23.4556C16.7579 23.3975 16.7983 23.2732 16.8958 23.2724L17.6493 23.2666L17.8877 22.5518C17.9186 22.4592 18.0493 22.4592 18.0802 22.5518Z" fill="#F5F5F5"/>
<path d="M18.0802 26.2911L18.3185 27.0059L19.072 27.0116C19.1696 27.0125 19.21 27.1369 19.1316 27.1949L18.5254 27.6425L18.7528 28.3609C18.7823 28.4539 18.6763 28.5309 18.5969 28.4741L17.9839 28.0359L17.371 28.4741C17.2916 28.5308 17.1858 28.4539 17.2151 28.3609L17.4425 27.6425L16.8363 27.1949C16.7579 27.1368 16.7983 27.0125 16.8958 27.0116L17.6493 27.0059L17.8877 26.2911C17.9186 26.1986 18.0493 26.1986 18.0802 26.2911Z" fill="#F5F5F5"/>
<path d="M20.9825 13.2398L21.2209 13.9547L21.9744 13.9604C22.072 13.9613 22.1123 14.0857 22.0339 14.1436L21.4278 14.5913L21.6551 15.3097C21.6847 15.4026 21.5787 15.4797 21.4992 15.4229L20.8863 14.9847L20.2733 15.4229C20.1939 15.4796 20.0881 15.4026 20.1174 15.3097L20.3448 14.5913L19.7387 14.1436C19.6602 14.0856 19.7006 13.9613 19.7982 13.9604L20.5517 13.9547L20.79 13.2398C20.8207 13.1473 20.9517 13.1473 20.9825 13.2398Z" fill="#F5F5F5"/>
<path d="M20.9825 16.9791L21.2209 17.694L21.9744 17.6997C22.072 17.7005 22.1123 17.825 22.0339 17.8829L21.4278 18.3306L21.6551 19.0489C21.6847 19.1419 21.5787 19.219 21.4992 19.1621L20.8863 18.724L20.2733 19.1621C20.1939 19.2189 20.0881 19.1419 20.1174 19.0489L20.3448 18.3306L19.7387 17.8829C19.6602 17.8248 19.7006 17.7005 19.7982 17.6997L20.5517 17.694L20.79 16.9791C20.8207 16.8867 20.9517 16.8867 20.9825 16.9791Z" fill="#F5F5F5"/>
<path d="M20.9825 20.7185L21.2209 21.4333L21.9744 21.439C22.072 21.4399 22.1123 21.5643 22.0339 21.6222L21.4278 22.0699L21.6551 22.7883C21.6847 22.8812 21.5787 22.9583 21.4992 22.9015L20.8863 22.4633L20.2733 22.9015C20.1939 22.9582 20.0881 22.8812 20.1174 22.7883L20.3448 22.0699L19.7387 21.6222C19.6602 21.5642 19.7006 21.4399 19.7982 21.439L20.5517 21.4333L20.79 20.7185C20.8207 20.626 20.9517 20.626 20.9825 20.7185Z" fill="#F5F5F5"/>
<path d="M20.9825 24.4578L21.2209 25.1726L21.9744 25.1784C22.072 25.1792 22.1123 25.3036 22.0339 25.3616L21.4278 25.8093L21.6551 26.5276C21.6847 26.6206 21.5787 26.6977 21.4992 26.6408L20.8863 26.2027L20.2733 26.6408C20.1939 26.6975 20.0881 26.6206 20.1174 26.5276L20.3448 25.8093L19.7387 25.3616C19.6602 25.3035 19.7006 25.1792 19.7982 25.1784L20.5517 25.1726L20.79 24.4578C20.8207 24.3652 20.9517 24.3652 20.9825 24.4578Z" fill="#F5F5F5"/>
<path d="M20.9825 28.1971L21.2209 28.9119L21.9744 28.9176C22.072 28.9185 22.1123 29.0429 22.0339 29.1009L21.4278 29.5485L21.6551 30.2669C21.6847 30.3599 21.5787 30.4369 21.4992 30.3801L20.8863 29.9419L20.2733 30.3801C20.1939 30.4368 20.0881 30.3599 20.1174 30.2669L20.3448 29.5485L19.7387 29.1009C19.6602 29.0428 19.7006 28.9185 19.7982 28.9176L20.5517 28.9119L20.79 28.1971C20.8207 28.1044 20.9517 28.1044 20.9825 28.1971Z" fill="#F5F5F5"/>
<path d="M23.8849 15.0731L24.1232 15.788L24.8767 15.7937C24.9743 15.7945 25.0147 15.919 24.9362 15.9769L24.3301 16.4246L24.5575 17.1429C24.587 17.2359 24.481 17.313 24.4016 17.2561L23.7886 16.818L23.1757 17.2561C23.0962 17.3129 22.9905 17.2359 23.0198 17.1429L23.2471 16.4246L22.641 15.9769C22.5626 15.9188 22.6029 15.7945 22.7005 15.7937L23.454 15.788L23.6924 15.0731C23.7231 14.9807 23.8541 14.9807 23.8849 15.0731Z" fill="#F5F5F5"/>
<path d="M23.8849 18.8125L24.1232 19.5274L24.8767 19.5331C24.9743 19.534 25.0147 19.6584 24.9362 19.7163L24.3301 20.164L24.5575 20.8824C24.587 20.9753 24.481 21.0524 24.4016 20.9956L23.7886 20.5574L23.1757 20.9956C23.0962 21.0523 22.9905 20.9754 23.0198 20.8824L23.2471 20.164L22.641 19.7163C22.5626 19.6583 22.6029 19.534 22.7005 19.5331L23.454 19.5274L23.6924 18.8125C23.7231 18.72 23.8541 18.72 23.8849 18.8125Z" fill="#F5F5F5"/>
<path d="M23.8849 22.5518L24.1232 23.2666L24.8767 23.2724C24.9743 23.2732 25.0147 23.3976 24.9362 23.4556L24.3301 23.9033L24.5575 24.6216C24.587 24.7146 24.481 24.7917 24.4016 24.7348L23.7886 24.2966L23.1757 24.7348C23.0962 24.7915 22.9905 24.7146 23.0198 24.6216L23.2471 23.9033L22.641 23.4556C22.5626 23.3975 22.6029 23.2732 22.7005 23.2724L23.454 23.2666L23.6924 22.5518C23.7231 22.4592 23.8541 22.4592 23.8849 22.5518Z" fill="#F5F5F5"/>
<path d="M23.8849 26.2911L24.1232 27.0059L24.8767 27.0116C24.9743 27.0125 25.0147 27.1369 24.9362 27.1949L24.3301 27.6425L24.5575 28.3609C24.587 28.4539 24.481 28.5309 24.4016 28.4741L23.7886 28.0359L23.1757 28.4741C23.0962 28.5308 22.9905 28.4539 23.0198 28.3609L23.2471 27.6425L22.641 27.1949C22.5626 27.1368 22.6029 27.0125 22.7005 27.0116L23.454 27.0059L23.6924 26.2911C23.7231 26.1986 23.8541 26.1986 23.8849 26.2911Z" fill="#F5F5F5"/>
<path d="M26.7872 13.2398L27.0256 13.9547L27.7791 13.9604C27.8766 13.9613 27.917 14.0857 27.8386 14.1436L27.2325 14.5913L27.4598 15.3097C27.4894 15.4026 27.3833 15.4797 27.3039 15.4229L26.691 14.9847L26.078 15.4229C25.9986 15.4796 25.8928 15.4026 25.9221 15.3097L26.1495 14.5913L25.5433 14.1436C25.4649 14.0856 25.5053 13.9613 25.6029 13.9604L26.3564 13.9547L26.5947 13.2398C26.6255 13.1473 26.7562 13.1473 26.7872 13.2398Z" fill="#F5F5F5"/>
<path d="M26.7872 16.9791L27.0256 17.694L27.7791 17.6997C27.8766 17.7005 27.917 17.825 27.8386 17.8829L27.2325 18.3306L27.4598 19.0489C27.4894 19.1419 27.3833 19.219 27.3039 19.1621L26.691 18.724L26.078 19.1621C25.9986 19.2189 25.8928 19.1419 25.9221 19.0489L26.1495 18.3306L25.5433 17.8829C25.4649 17.8248 25.5053 17.7005 25.6029 17.6997L26.3564 17.694L26.5947 16.9791C26.6255 16.8867 26.7562 16.8867 26.7872 16.9791Z" fill="#F5F5F5"/>
<path d="M26.7872 20.7185L27.0256 21.4333L27.7791 21.439C27.8766 21.4399 27.917 21.5643 27.8386 21.6222L27.2325 22.0699L27.4598 22.7883C27.4894 22.8812 27.3833 22.9583 27.3039 22.9015L26.691 22.4633L26.078 22.9015C25.9986 22.9582 25.8928 22.8812 25.9221 22.7883L26.1495 22.0699L25.5433 21.6222C25.4649 21.5642 25.5053 21.4399 25.6029 21.439L26.3564 21.4333L26.5947 20.7185C26.6255 20.626 26.7562 20.626 26.7872 20.7185Z" fill="#F5F5F5"/>
<path d="M26.7872 24.4578L27.0256 25.1726L27.7791 25.1784C27.8766 25.1792 27.917 25.3036 27.8386 25.3616L27.2325 25.8093L27.4598 26.5276C27.4894 26.6206 27.3833 26.6977 27.3039 26.6408L26.691 26.2027L26.078 26.6408C25.9986 26.6975 25.8928 26.6206 25.9221 26.5276L26.1495 25.8093L25.5433 25.3616C25.4649 25.3035 25.5053 25.1792 25.6029 25.1784L26.3564 25.1726L26.5947 24.4578C26.6255 24.3652 26.7562 24.3652 26.7872 24.4578Z" fill="#F5F5F5"/>
<path d="M26.7872 28.1971L27.0256 28.9119L27.7791 28.9176C27.8766 28.9185 27.917 29.0429 27.8386 29.1009L27.2325 29.5485L27.4598 30.2669C27.4894 30.3599 27.3833 30.4369 27.3039 30.3801L26.691 29.9419L26.078 30.3801C25.9986 30.4368 25.8928 30.3599 25.9221 30.2669L26.1495 29.5485L25.5433 29.1009C25.4649 29.0428 25.5053 28.9185 25.6029 28.9176L26.3564 28.9119L26.5947 28.1971C26.6255 28.1044 26.7562 28.1044 26.7872 28.1971Z" fill="#F5F5F5"/>
</g>
<defs>
<clipPath id="clip0">
<rect x="0.544434" width="62.4556" height="62.4556" fill="white"/>
</clipPath>
</defs>
</svg>
