<svg xmlns="http://www.w3.org/2000/svg" width="66" height="66" fill="none"><circle cx="33" cy="33" r="33" fill="#2baa9b"/><path d="M42.075 14.85h-18.15c-5.012 0-9.075 4.063-9.075 9.075v18.15c0 5.012 4.063 9.075 9.075 9.075h18.15c5.012 0 9.075-4.063 9.075-9.075v-18.15c0-5.012-4.063-9.075-9.075-9.075z" fill="#fff"/><g stroke="#2baa9b" stroke-width="4" stroke-linejoin="round"><path d="M40.26 31.857a7.26 7.26 0 0 1-3.917 7.55 7.26 7.26 0 0 1-8.398-1.351 7.26 7.26 0 0 1-1.351-8.398 7.26 7.26 0 0 1 7.55-3.917 7.26 7.26 0 0 1 6.117 6.116z"/><path d="M42.983 23.018H43" stroke-linecap="round"/></g></svg>