<svg width="66" height="66" viewBox="0 0 66 66" fill="none" xmlns="http://www.w3.org/2000/svg">
<circle cx="33" cy="33" r="33" fill="#2BAA9B"/>
<path d="M40.2601 25.74C43.1483 25.74 45.9182 26.8873 47.9605 28.9296C50.0028 30.9719 51.1501 33.7418 51.1501 36.63V49.335H43.8901V36.63C43.8901 35.6673 43.5077 34.744 42.8269 34.0632C42.1462 33.3824 41.2229 33 40.2601 33C39.2974 33 38.3741 33.3824 37.6933 34.0632C37.0126 34.744 36.6301 35.6673 36.6301 36.63V49.335H29.3701V36.63C29.3701 33.7418 30.5175 30.9719 32.5597 28.9296C34.602 26.8873 37.3719 25.74 40.2601 25.74Z" fill="white"/>
<path d="M22.1101 27.5549H14.8501V49.3349H22.1101V27.5549Z" fill="white"/>
<path d="M18.4801 22.1099C20.4849 22.1099 22.1101 20.4846 22.1101 18.4799C22.1101 16.4751 20.4849 14.8499 18.4801 14.8499C16.4753 14.8499 14.8501 16.4751 14.8501 18.4799C14.8501 20.4846 16.4753 22.1099 18.4801 22.1099Z" fill="white"/>
</svg>
