<svg width="62" height="63" viewBox="0 0 62 63" fill="none" xmlns="http://www.w3.org/2000/svg">
<path d="M57.5516 61.5789H4.04557C2.37676 61.5789 1 60.2188 1 58.5238V4.0551C1 2.36015 2.3559 1 4.04557 1H57.5516C59.2204 1 60.5971 2.36015 60.5971 4.0551V58.5238C60.5971 60.2188 59.2412 61.5789 57.5516 61.5789Z" fill="#2BAA9B"/>
<path d="M57.5516 61.5789H4.04557C2.37676 61.5789 1 60.2188 1 58.5238V4.0551C1 2.36015 2.3559 1 4.04557 1H57.5516C59.2204 1 60.5971 2.36015 60.5971 4.0551V58.5238C60.5971 60.2188 59.2412 61.5789 57.5516 61.5789Z" stroke="white" stroke-width="2" stroke-miterlimit="10"/>
<path d="M38.4012 24.6456H41.3633C41.5093 24.1016 41.5511 23.4947 41.5302 22.9507H38.4012C38.0257 22.9507 37.7337 22.6577 37.7337 22.281C37.7337 21.9044 38.0257 21.6114 38.4012 21.6114H41.3633C40.2577 16.4638 34.2501 11.4836 27.8252 13.5133C24.0286 14.7061 21.0039 18.1169 20.253 21.6114H23.2151C23.5906 21.6114 23.8826 21.9044 23.8826 22.281C23.8826 22.6577 23.5906 22.9507 23.2151 22.9507H20.0861C20.0652 23.5156 20.107 24.1016 20.253 24.6456H23.2151C23.5906 24.6456 23.8826 24.9386 23.8826 25.3152C23.8826 25.6919 23.5906 25.9848 23.2151 25.9848H20.8162C22.631 28.9353 27.3662 29.6049 30.8081 29.6049C34.2501 29.6049 38.9853 28.9562 40.8001 25.9848H38.4221C38.0466 25.9848 37.7545 25.6919 37.7545 25.3152C37.7337 24.9386 38.0257 24.6456 38.4012 24.6456ZM27.1785 18.1588C27.8669 18.1588 28.4301 18.7237 28.4301 19.4143C28.4301 20.1048 27.8669 20.6698 27.1785 20.6698C26.4901 20.6698 25.9269 20.1048 25.9269 19.4143C25.9478 18.7237 26.4901 18.1588 27.1785 18.1588ZM30.7873 27.7007C29.1185 29.6259 25.9269 28.454 25.9269 25.9011C25.9269 25.5245 26.2189 25.2315 26.5944 25.2315C26.9699 25.2315 27.2619 25.5245 27.2619 25.9011C27.2619 26.6963 27.9086 27.3241 28.6804 27.3241C29.3479 27.3241 29.9112 26.8637 30.0572 26.215C28.7847 25.6291 28.0963 23.6203 28.9516 22.7623C29.3688 22.3438 29.9737 22.3438 30.5787 22.3438C31.3297 22.3438 32.1015 22.2601 32.5813 22.7623C33.4574 23.6203 32.7273 25.65 31.4757 26.215C31.6217 26.8428 32.1849 27.3241 32.8524 27.3241C33.6451 27.3241 34.2709 26.6754 34.2709 25.9011C34.2709 25.5245 34.563 25.2315 34.9384 25.2315C35.3139 25.2315 35.606 25.5245 35.606 25.9011C35.6477 28.454 32.4561 29.6259 30.7873 27.7007ZM34.4169 20.6489C33.7286 20.6489 33.1653 20.0839 33.1653 19.3933C33.1653 18.7028 33.7286 18.1378 34.4169 18.1378C35.1053 18.1378 35.6685 18.7028 35.6685 19.3933C35.6477 20.0839 35.0845 20.6489 34.4169 20.6489Z" fill="white"/>
<path d="M31.642 23.7249C31.4751 23.683 31.1205 23.704 30.599 23.704C30.3904 23.704 30.0984 23.704 29.9524 23.7249C29.9106 24.2062 30.3696 25.0223 30.8076 25.0223C31.2248 25.0223 31.7046 24.2271 31.642 23.7249Z" fill="white"/>
<path d="M26.8239 12.4043C25.9895 10.3536 24.2581 8.78419 22.1512 8.15643C21.0248 9.85139 21.0873 14.6224 21.1708 16.6521C22.6101 14.7479 24.5918 13.2413 26.8239 12.4043Z" fill="white"/>
<path d="M40.4659 16.6731C40.5494 14.6433 40.6119 9.85139 39.4855 8.15643C37.2952 8.80512 35.6055 10.4164 34.792 12.4252C37.0449 13.2622 39.0266 14.7898 40.4659 16.6731Z" fill="white"/>
<path d="M20.837 45.1317C20.8787 44.8596 21.3376 41.2605 21.7757 37.9124C21.9008 36.9289 22.172 36.0082 22.5684 35.1503C20.3155 36.2802 18.751 38.6239 18.751 41.3233V44.1691C18.751 45.5083 19.6271 46.6383 20.8161 47.0568C20.7327 46.4081 20.7327 45.7594 20.837 45.1317Z" fill="white"/>
<path d="M39.0059 35.1293C39.4022 35.9872 39.6734 36.9079 39.7985 37.8914C40.2366 41.1976 40.6955 44.8386 40.7372 45.1107C40.8415 45.7384 40.8415 46.3871 40.7372 47.0149C41.9471 46.6173 42.8024 45.4664 42.8024 44.1272V41.2813C42.8232 38.6029 41.2796 36.2592 39.0059 35.1293Z" fill="white"/>
<path d="M31.8302 51.5558C31.4547 51.3674 31.1209 51.1163 30.7872 50.8652C30.4743 51.1373 30.1196 51.3674 29.7442 51.5558C28.9098 51.9952 27.9919 52.2463 27.0532 52.2672C27.8042 53.5646 29.2018 54.4225 30.7872 54.4225C32.3725 54.4225 33.7702 53.5437 34.5211 52.2672C33.6033 52.2254 32.6646 51.9952 31.8302 51.5558Z" fill="white"/>
<path d="M36.169 50.6141C37.2537 50.2584 38.1507 49.526 38.7348 48.5634C39.3189 47.6009 39.5275 46.4709 39.3397 45.3619C39.3189 45.1735 38.7556 40.9048 38.3802 38.1008C37.9212 34.2505 34.6462 31.3419 30.7662 31.3419C26.8863 31.3419 23.6321 34.2505 23.1523 38.1008C22.7768 40.9257 22.2345 45.1735 22.1928 45.3619C22.005 46.4709 22.2345 47.6009 22.7977 48.5634C23.3818 49.5469 24.2996 50.2793 25.3635 50.6141C25.8433 50.7815 26.3439 50.8443 26.8237 50.8443C28.0127 50.8443 29.16 50.3839 30.0153 49.5888V48.9819C29.8067 48.8564 29.5355 48.7099 29.2852 48.5216C28.4091 47.8938 27.971 47.2033 27.971 46.4918C27.971 45.0689 29.014 44.2319 30.7454 44.2319C32.4768 44.2319 33.5198 45.0689 33.5198 46.4918C33.5198 47.2033 33.0817 47.8938 32.2056 48.5216C31.9344 48.7099 31.6841 48.8773 31.4755 48.9819V49.5888C32.3307 50.3839 33.478 50.8443 34.6671 50.8443C35.1886 50.8443 35.6892 50.7606 36.169 50.6141ZM26.3856 48.1868H24.9672V46.7639H26.3856V48.1868ZM28.4091 42.3486H26.9906V39.7748H28.4091V42.3486ZM36.6279 48.1868H35.2094V46.7639H36.6279V48.1868ZM33.186 42.3486V39.7748H34.6045V42.3486H33.186Z" fill="white"/>
<path d="M32.1434 46.4918C32.1434 46.2407 32.1434 45.6548 30.7875 45.6548C29.4316 45.6548 29.4316 46.2407 29.4316 46.4918C29.4316 46.8685 30.1409 47.4334 30.7875 47.7683C31.6011 47.3288 32.1434 46.7638 32.1434 46.4918Z" fill="white"/>
<path d="M11.0125 8.49119C10.5119 7.71695 9.67751 7.25659 8.75966 7.25659C7.84182 7.25659 7.00742 7.71695 6.50678 8.49119L5.31776 10.3535C5.13002 10.6674 5.02572 11.0232 5.04658 11.3789C5.06744 11.7346 5.21346 12.0904 5.44292 12.3624C5.67238 12.6344 5.98528 12.8227 6.3399 12.9064C6.69452 12.9901 7.07 12.9483 7.40376 12.8018H7.42462C8.25902 12.4461 9.21859 12.4461 10.0738 12.8018C10.2824 12.9064 10.5119 12.9483 10.7414 12.9483C10.8665 12.9483 10.9917 12.9274 11.1168 12.9064C11.4715 12.8227 11.7844 12.6344 12.0138 12.3624C12.2433 12.0904 12.3893 11.7346 12.4102 11.3789C12.431 11.0232 12.3476 10.6674 12.139 10.3535L11.0125 8.49119Z" fill="white"/>
<path d="M5.65151 8.49122C6.00613 8.34474 6.27731 8.07271 6.40247 7.69605C6.52763 7.34032 6.52763 6.92181 6.38161 6.54515C6.23559 6.1685 5.96441 5.85462 5.63065 5.66629C5.27603 5.47796 4.87969 5.43611 4.52507 5.58259C3.81582 5.85462 3.48206 6.73349 3.79496 7.54958C4.04529 8.19826 4.60851 8.59585 5.19259 8.59585C5.35947 8.57492 5.50549 8.53307 5.65151 8.49122Z" fill="white"/>
<path d="M7.96706 7.02643C8.86404 7.02643 9.57328 6.21034 9.57328 5.185C9.57328 4.18058 8.84318 3.34357 7.96706 3.34357C7.07008 3.34357 6.36084 4.15965 6.36084 5.185C6.36084 6.21034 7.07008 7.02643 7.96706 7.02643Z" fill="white"/>
<path d="M10.7413 7.48678C10.8873 7.52863 11.0125 7.54956 11.1585 7.54956C11.8052 7.54956 12.431 7.06828 12.6813 6.35681C12.8273 5.93831 12.8065 5.49888 12.6604 5.12222C12.4936 4.72464 12.2015 4.43168 11.8052 4.30613C11.4297 4.18058 11.0125 4.22242 10.637 4.4526C10.2824 4.66186 10.0112 5.01759 9.86519 5.4361C9.57315 6.29404 9.96949 7.21475 10.7413 7.48678Z" fill="white"/>
<path d="M14.1205 7.2775C13.5156 6.81714 12.5978 7.02639 12.0763 7.71693C11.5547 8.40747 11.6382 9.34911 12.264 9.80947C12.4935 9.97687 12.7438 10.0606 13.015 10.0606C13.4947 10.0606 13.9745 9.83039 14.3083 9.37003C14.8089 8.65857 14.7463 7.71693 14.1205 7.2775Z" fill="white"/>
<path d="M57.0085 52.4136H54.5261V49.9235C54.5261 49.5887 54.255 49.3167 53.9212 49.3167H51.1468C50.8131 49.3167 50.5419 49.5887 50.5419 49.9235V52.4136H48.0595C47.7258 52.4136 47.4546 52.6856 47.4546 53.0204V55.8244C47.4546 56.1593 47.7258 56.4313 48.0595 56.4313H50.5419V58.9214C50.5419 59.2562 50.8131 59.5282 51.1468 59.5282H53.9212C54.255 59.5282 54.5261 59.2562 54.5261 58.9214V56.4313H57.0085C57.3422 56.4313 57.6134 56.1593 57.6134 55.8244V53.0414C57.6343 52.6856 57.3631 52.4136 57.0085 52.4136Z" fill="white"/>
</svg>
