<svg width="56" height="56" viewBox="0 0 56 56" fill="none" xmlns="http://www.w3.org/2000/svg">
<path d="M28 0C12.5244 0 0 12.5231 0 28C0 43.4756 12.5231 56 28 56C43.4756 56 56 43.4769 56 28C56 12.5244 43.4769 0 28 0ZM42.3215 29.4717L28.9636 39.8928C27.7413 40.8461 25.9487 39.9761 25.9487 38.421V33.1799H14.8265C13.7957 33.1799 12.9598 32.3442 12.9598 31.3132V24.6868C12.9598 23.656 13.7956 22.8201 14.8265 22.8201H25.9487V17.579C25.9487 16.0268 27.7401 15.1528 28.9636 16.1072L42.3215 26.5282C43.2798 27.2757 43.2777 28.7259 42.3215 29.4717Z" fill="#2BAA9B"/>
</svg>
