<svg width="334" height="27" viewBox="0 0 334 27" fill="none" xmlns="http://www.w3.org/2000/svg">
<g id="divider">
<path id="plus" d="M170.811 25.3894L170.811 18.7926L177.395 18.7926C178.281 18.7926 179 18.0719 179 17.1849L179 9.81205C179 8.92509 178.281 8.20443 177.395 8.20443L170.811 8.20443L170.811 1.60762C170.811 0.72066 170.092 -3.89372e-07 169.207 -4.28067e-07L161.793 -7.52141e-07C160.908 -7.90837e-07 160.189 0.720659 160.189 1.60762L160.189 8.20443L153.604 8.20443C152.719 8.20443 152 8.92509 152 9.81205L152 17.1849C152 18.0719 152.719 18.7926 153.604 18.7926L160.189 18.7926L160.189 25.3894C160.189 26.2763 160.908 26.997 161.793 26.997L169.152 26.997C170.092 27.0524 170.811 26.3318 170.811 25.3894Z" fill="white"/>
<line id="Line 7" x1="334" y1="13" x2="207" y2="13" stroke="white" stroke-width="4"/>
<line id="Line 8" x1="127" y1="13" y2="13" stroke="white" stroke-width="4"/>
</g>
</svg>
