<svg width="56" height="56" viewBox="0 0 56 56" fill="none" xmlns="http://www.w3.org/2000/svg">
<path d="M28 56C43.4756 56 56 43.4769 56 28C56 12.5244 43.4769 -1.41131e-07 28 -1.49416e-06C12.5244 -2.84708e-06 4.75454e-06 12.5231 3.40151e-06 28C2.04859e-06 43.4756 12.5231 56 28 56ZM13.6786 26.5282L27.0364 16.1072C28.2587 15.1539 30.0513 16.0239 30.0513 17.579L30.0513 22.8201L41.1735 22.8201C42.2043 22.8201 43.0402 23.6558 43.0402 24.6868L43.0402 31.3132C43.0402 32.344 42.2044 33.1799 41.1735 33.1799L30.0513 33.1799L30.0513 38.421C30.0513 39.9732 28.2599 40.8472 27.0364 39.8928L13.6786 29.4717C12.7202 28.7243 12.7223 27.2741 13.6786 26.5282Z" fill="#2BAA9B"/>
</svg>
