<svg xmlns="http://www.w3.org/2000/svg" width="108" height="103" fill="none"><g clip-path="url(#A)" fill="#fff"><path d="M76.872 2.172C69.852.62 61.954 6.204 59.497 14.735s1.404 16.75 8.424 18.303 14.918-4.033 17.375-12.564c3.335-11.168-6.67-17.992-8.424-18.302zM39.5 31.33c7.076 0 12.812-7.014 12.812-15.666S46.565 0 39.5 0 26.677 7.014 26.677 15.666 32.413 31.33 39.5 31.33zm54.055-.464c-7.547.155-13.338 6.36-13.163 16.13S86.7 61.112 94.247 61.112c7.547-.155 13.338-4.653 13.163-14.425-.176-12.874-12.1-15.976-13.865-15.82zM26.6 38.397c-.7-8.717-7.207-15.414-14.556-14.96S-.693 31.326-.003 40.042s7.207 15.414 14.556 14.96S27.3 47.113 26.6 38.397zm60.1 28.92c-6.318-4.963-11.76-8.996-20.36-19.388-4.212-5.12-9.126-5.74-14.04-5.74-5.1 0-10.355 1.55-14.567 6.825-4.037 5.274-8.775 10.237-17.902 16.907-8.95 6.67-12.81 11.167-12.81 17.992s4.388 17.992 16.85 17.992 18.428-2.48 28.432-2.48 16.498 3.412 28.96 3.412S98.988 92.444 98.988 85.62 96.704 75.07 86.7 67.316z"/></g><defs><clipPath id="A"><path fill="#fff" d="M0 0h107.4v103H0z"/></clipPath></defs></svg>