<svg xmlns="http://www.w3.org/2000/svg" width="197" height="184" fill="none"><g clip-path="url(#A)" fill="#fff"><path d="M95.58 31.418c-3.85-3.757-11.1-2.58-16.173 2.637-5.085 5.2-6.1 12.48-2.236 16.24s11.1 2.58 16.173-2.637c6.613-6.787 3.16-15.342 2.236-16.24zM59.597 38.74c4.518 2.6 11.104-.34 14.7-6.584s2.865-13.422-1.653-16.03-11.104.34-14.7 6.584-2.865 13.422 1.653 16.03zM94.27 58.124c-4.8-2.673-11.167-.33-15.1 6.728s-1.847 12.5 2.943 15.184 10.46 1.544 14.398-5.5c5.125-9.188-1.092-15.762-2.24-16.4zm-60.284-11.52c4.836 2.358 11.343-1.036 14.535-7.582s1.86-13.763-2.976-16.12S34.202 23.936 31 30.482s-1.86 13.763 2.976 16.12zm40.77 35.28c-2-5.922-3.772-10.822-4.836-21.432-.534-5.248-3.335-7.5-6.553-9.358s-7.272-2.688-12.043-.448-9.845 4.194-18.362 5.67S20.1 59.7 17.284 64.578s-4.714 14.592 3.21 19.166 12.758 5.04 19.024 8.66 9.035 8.466 16.957 13.04 15.556-1.014 18.373-5.893 3.04-8.437-.1-17.668z"/></g><g clip-path="url(#B)" fill="#fff"><path d="M72.58 129.6c-3.85-3.757-11.1-2.58-16.173 2.637-5.085 5.2-6.1 12.48-2.235 16.24s11.1 2.58 16.173-2.637c6.613-6.787 3.16-15.34 2.236-16.24zm-35.983 7.314c4.518 2.608 11.104-.34 14.7-6.584s2.865-13.422-1.653-16.03-11.104.34-14.7 6.583-2.865 13.422 1.653 16.03zm34.673 19.383c-4.8-2.673-11.167-.33-15.1 6.727s-1.847 12.512 2.943 15.185 10.46 1.544 14.398-5.512c5.126-9.188-1.092-15.762-2.24-16.4zm-60.284-11.522c4.836 2.36 11.343-1.036 14.535-7.58s1.86-13.763-2.976-16.122S11.202 122.1 8 128.654s-1.86 13.763 2.976 16.12zm40.77 35.28c-2-5.92-3.772-10.822-4.836-21.432-.534-5.247-3.335-7.5-6.553-9.357s-7.272-2.688-12.043-.448-9.845 4.194-18.362 5.67-12.86 3.383-15.678 8.262-4.713 14.593 3.2 19.167 12.758 5.04 19.024 8.66 9.035 8.466 16.957 13.04 15.556-1.013 18.373-5.892 3.04-8.438-.1-17.67z"/></g><g clip-path="url(#C)" fill="#fff" stroke="#fff"><path d="M174.208 107.575l.001.001c.05.056.16.236.3.57.133.32.277.744.406 1.253a14.21 14.21 0 0 1 .417 3.857c-.085 2.992-1.126 6.613-4.56 9.632-2.663 2.34-5.76 3.648-8.597 3.888s-5.38-.586-7.025-2.46h0c-1.647-1.876-2.136-4.506-1.53-7.3s2.302-5.686 4.966-8.023v-.001c2.663-2.34 5.76-3.648 8.597-3.888s5.38.586 7.025 2.46zm-21.304-1.515c-1.986 2.897-4.62 4.92-7.258 5.864s-5.234.798-7.22-.563-3.06-3.73-3.132-6.53.864-5.988 2.85-8.885 4.62-4.92 7.258-5.863 5.234-.798 7.22.563 3.06 3.73 3.132 6.53-.864 5.988-2.85 8.884zm18.036 28.128v.001c.2.125.707.635 1.3 1.514a12.37 12.37 0 0 1 1.581 3.452c.796 2.815.78 6.613-2.044 10.864-2.185 3.292-4.644 5.05-7.058 5.645-2.408.595-4.844.05-7.03-1.4s-3.65-3.498-4.054-5.96.246-5.423 2.43-8.712v-.001c4.38-6.606 10.632-8.224 14.88-5.403zm-44.293-23.243c-1.795 3.057-4.326 5.27-6.946 6.4s-5.295 1.134-7.446-.13-3.44-3.605-3.74-6.44.4-6.122 2.194-9.18 4.327-5.27 6.947-6.4 5.295-1.134 7.446.13 3.44 3.606 3.74 6.44-.4 6.122-2.195 9.18zm22.8 45.132h0c1.202 4.712 1.662 7.9 1.448 10.446-.212 2.53-1.088 4.494-2.648 6.77-1.538 2.244-4.262 4.58-7.505 5.722-3.224 1.135-6.95 1.1-10.573-1.393-3.727-2.554-6.18-5.077-8.46-7.5l-.406-.43c-2.13-2.257-4.18-4.43-7.034-6.387-2.844-1.95-5.424-3.17-8.117-4.443l-.5-.24c-2.88-1.365-5.933-2.854-9.673-5.416-3.605-2.47-4.778-5.97-4.667-9.447.1-3.5 1.528-6.956 3.076-9.215 3.05-4.453 7.332-5.998 15.903-6.814 8.656-.82 13.9-2.4 18.875-4.268 4.75-1.8 8.554-.708 11.513 1.32 1.516 1.04 2.876 2.138 3.878 3.6.994 1.45 1.655 3.288 1.717 5.836.234 10.27 1.528 15.35 2.992 21.1l.192.753z"/></g><defs><clipPath id="A"><path transform="rotate(30 44.72 0)" fill="#fff" d="M44.72 0h85.44v85.44H44.72z"/></clipPath><clipPath id="B"><path transform="rotate(30 21.72 98.173)" fill="#fff" d="M21.72 98.173h85.44v85.44H21.72z"/></clipPath><clipPath id="C"><path transform="rotate(34.422 126.297 72)" fill="#fff" d="M126.297 72h85.44v85.44h-85.44z"/></clipPath></defs></svg>