<svg xmlns="http://www.w3.org/2000/svg" width="108" height="103" fill="#fff"><path d="M59.462 16.552v1.84c0 1.017-.86 1.84-1.918 1.84h-42.2c-1.06 0-1.918-.822-1.918-1.84v-1.84H7.672v73.563l46.12-.016c-.953-5.484 2.258-10.262 4.958-14.8l6.33-10.606c.03-.048.134-.166.134-.224.002-.004.002-47.926.002-47.926h-5.754zm-44.117 42.3H30.7c1.06 0 1.918.822 1.918 1.84s-.86 1.84-1.918 1.84H15.345c-1.06 0-1.918-.822-1.918-1.84s.86-1.84 1.918-1.84zm0 9.196h23.017c1.06 0 1.918.822 1.918 1.84s-.86 1.84-1.918 1.84H15.345c-1.06 0-1.918-.822-1.918-1.84s.86-1.84 1.918-1.84zm30.7 12.874h-30.7c-1.06 0-1.918-.822-1.918-1.84s.86-1.84 1.918-1.84h30.7c1.06 0 1.918.822 1.918 1.84s-.86 1.84-1.918 1.84zm-9.6-27.586c-8.46 0-15.345-6.6-15.345-14.713S27.984 23.9 36.445 23.9 51.8 30.5 51.8 38.623s-6.884 14.713-15.345 14.713zm19.54 43.844l-.725-1.453-.257-.578-.474-1.357H5.754c-1.06 0-1.918-.822-1.918-1.84v-77.24c0-1.017.86-1.84 1.918-1.84h7.673V9.195H.988c-.545 0-.988.423-.988.947v86.4c0 .506.432.92.96.92h55.173c-.056-.094-.092-.195-.146-.3zm-19.54-86.145c1.06 0 1.918-.823 1.918-1.84s-.86-1.84-1.918-1.84-1.918.823-1.918 1.84.86 1.84 1.918 1.84zm-.001 16.55c-6.345 0-11.5 4.95-11.5 11.034s5.164 11.034 11.5 11.034 11.5-4.95 11.5-11.034-5.164-11.034-11.5-11.034zM42.2 40.46h-3.836v3.678c0 1.017-.86 1.84-1.918 1.84s-1.918-.822-1.918-1.84V40.46H30.7c-1.06 0-1.918-.822-1.918-1.84s.86-1.84 1.918-1.84h3.836v-3.678c0-1.017.86-1.84 1.918-1.84s1.918.822 1.918 1.84v3.678H42.2c1.06 0 1.918.822 1.918 1.84s-.86 1.84-1.918 1.84zM68.674 66.1l-5.662 9.484c-2.678 4.487-5.802 8.765-5.355 14.212.25 3.055 1.494 5.984 3.594 8.3a14.74 14.74 0 0 0 3.731 2.976 15.2 15.2 0 0 0 11.236 1.442c3.852-.988 7.068-3.37 9.06-6.707l9.215-15.437L68.675 66.1zM81.93 94.087c-1.882 3.17-5.568 5.225-9.53 5.225l-1.093-.002c-1.06 0-1.918-.822-1.918-1.84s.86-1.84 1.918-1.84h1.1c2.6 0 5-1.346 6.297-3.515l6.25-8.574c.608-.833 1.803-1.034 2.672-.452s1.078 1.73.472 2.562l-6.16 8.434zM52.7 5.517h-4.908c-2.64 0-5.16-1.227-6.736-3.28C39.955.816 38.278 0 36.446 0s-3.508.815-4.6 2.238C30.27 4.3 27.75 5.517 25.1 5.517h-4.912c-1.62 0-2.935 1.263-2.935 2.814v8.22h38.362V8.33c0-1.552-1.318-2.814-2.935-2.814zm-16.246 9.196c-3.173 0-5.754-2.475-5.754-5.517s2.58-5.517 5.754-5.517S42.2 6.154 42.2 9.195s-2.582 5.517-5.754 5.517zM71.9 9.193H59.46v3.678l7.672.002c1.06 0 1.918.822 1.918 1.84V58.05l3.836-6.428V10.14c0-.522-.443-.947-.988-.947zm28.072 33.194c-3.424-1.913-7.415-2.43-11.236-1.442-3.848.988-7.065 3.37-9.057 6.707l-9.1 15.244 25.82 14.27 9.02-15.1c4.105-6.876 1.664-15.7-5.445-19.67zm-7.753 5.43c-2.486 0-4.602 1.25-5.954 3.514l-5.745 8.52c-.366.544-.984.84-1.613.84-.357 0-.717-.096-1.04-.294-.9-.552-1.145-1.7-.568-2.543l5.7-8.434c1.983-3.325 5.367-5.28 9.23-5.28 1.06 0 1.918.822 1.918 1.84s-.858 1.84-1.918 1.84z"/></svg>