<svg width="66" height="66" viewBox="0 0 66 66" fill="none" xmlns="http://www.w3.org/2000/svg">
<circle cx="33" cy="33" r="33" fill="#2BAA9B"/>
<path d="M52.9652 16.665C51.2271 17.891 49.3027 18.8287 47.2661 19.4419C46.173 18.1851 44.7202 17.2942 43.1043 16.8899C41.4884 16.4856 39.7873 16.5873 38.2311 17.1813C36.6749 17.7752 35.3387 18.8328 34.4031 20.211C33.4676 21.5891 32.9778 23.2214 33.0002 24.8869V26.7019C29.8105 26.7846 26.65 26.0772 23.7999 24.6427C20.9499 23.2082 18.4989 21.0911 16.6652 18.48C16.6652 18.48 9.40516 34.815 25.7402 42.075C22.0022 44.6123 17.5493 45.8845 13.0352 45.705C29.3702 54.78 49.3352 45.705 49.3352 24.8325C49.3335 24.3269 49.2849 23.8226 49.19 23.326C51.0424 21.4992 52.3496 19.1928 52.9652 16.665Z" fill="white"/>
</svg>
